<svg width="24" height="24" viewBox="0 0 24 24" fill="none" xmlns="http://www.w3.org/2000/svg">
<path fill-rule="evenodd" clip-rule="evenodd" d="M4.953 2.25H19.047C19.714 2.25 20.284 2.25 20.74 2.307C21.223 2.368 21.69 2.505 22.074 2.865C22.464 3.232 22.619 3.689 22.687 4.164C22.75 4.601 22.75 5.144 22.75 5.764V6.54C22.75 7.029 22.75 7.45 22.714 7.803C22.674 8.183 22.589 8.538 22.383 8.879C22.178 9.218 21.903 9.464 21.585 9.684C21.286 9.892 20.905 10.107 20.455 10.36L17.513 12.016C16.843 12.393 16.61 12.529 16.454 12.664C16.097 12.974 15.892 13.319 15.796 13.75C15.755 13.935 15.75 14.167 15.75 14.873V17.605C15.75 18.506 15.75 19.271 15.657 19.86C15.559 20.485 15.33 21.085 14.73 21.46C14.143 21.827 13.498 21.793 12.87 21.644C12.265 21.501 11.52 21.209 10.626 20.86L10.54 20.826C10.12 20.662 9.754 20.519 9.464 20.369C9.152 20.208 8.862 20.008 8.641 19.696C8.416 19.38 8.327 19.042 8.286 18.696C8.25 18.381 8.25 18.003 8.25 17.581V14.873C8.25 14.167 8.246 13.935 8.204 13.75C8.11322 13.3242 7.88137 12.9416 7.546 12.664C7.39 12.529 7.156 12.393 6.487 12.016L3.545 10.36C3.095 10.107 2.714 9.892 2.415 9.684C2.097 9.464 1.822 9.218 1.617 8.879C1.411 8.538 1.326 8.182 1.287 7.803C1.25 7.451 1.25 7.029 1.25 6.54V5.764C1.25 5.144 1.25 4.601 1.313 4.164C1.381 3.689 1.536 3.232 1.926 2.865C2.31 2.505 2.776 2.368 3.26 2.307C3.716 2.25 4.286 2.25 4.953 2.25ZM3.448 3.796C3.114 3.838 3.008 3.906 2.953 3.959C2.903 4.005 2.839 4.086 2.797 4.377C2.752 4.695 2.75 5.129 2.75 5.815V6.505C2.75 7.039 2.75 7.383 2.778 7.649C2.804 7.896 2.848 8.015 2.902 8.104C2.957 8.195 3.049 8.298 3.27 8.452C3.504 8.614 3.823 8.795 4.31 9.069L7.223 10.709L7.303 10.754C7.863 11.069 8.243 11.283 8.529 11.531C9.10742 12.019 9.50823 12.6845 9.669 13.424C9.75 13.791 9.75 14.204 9.75 14.784V17.543C9.75 18.015 9.751 18.305 9.777 18.523C9.799 18.721 9.836 18.788 9.863 18.827C9.893 18.869 9.953 18.934 10.152 19.037C10.364 19.146 10.657 19.261 11.119 19.442C12.08 19.818 12.727 20.069 13.216 20.185C13.695 20.299 13.853 20.24 13.934 20.189C14.002 20.146 14.107 20.059 14.176 19.626C14.248 19.169 14.25 18.523 14.25 17.542V14.784C14.25 14.204 14.25 13.791 14.332 13.424C14.4925 12.6847 14.893 12.0191 15.471 11.531C15.757 11.283 16.138 11.068 16.696 10.754L16.777 10.709L19.69 9.069C20.177 8.795 20.496 8.614 20.73 8.452C20.951 8.298 21.043 8.195 21.098 8.104C21.152 8.015 21.196 7.896 21.221 7.649C21.249 7.383 21.25 7.039 21.25 6.504V5.814C21.25 5.129 21.248 4.694 21.203 4.377C21.161 4.086 21.096 4.005 21.048 3.959C20.992 3.907 20.886 3.838 20.552 3.796C20.202 3.751 19.727 3.75 19 3.75H5C4.273 3.75 3.799 3.751 3.448 3.796Z" fill="black"/>
</svg>
