<svg width="24" height="28" viewBox="0 0 24 28" fill="none" xmlns="http://www.w3.org/2000/svg">
<path d="M7.85399 8.35402C7.90048 8.30753 7.93736 8.25234 7.96251 8.1916C7.98767 8.13087 8.00062 8.06577 8.00062 8.00002C8.00062 7.93428 7.98767 7.86918 7.96251 7.80844C7.93736 7.7477 7.90048 7.69251 7.85399 7.64602C7.8075 7.59953 7.75231 7.56266 7.69157 7.5375C7.63083 7.51234 7.56573 7.49939 7.49999 7.49939C7.43425 7.49939 7.36915 7.51234 7.30841 7.5375C7.24767 7.56266 7.19248 7.59953 7.14599 7.64602L5.49999 9.29302L4.85399 8.64602C4.7601 8.55213 4.63277 8.49939 4.49999 8.49939C4.36721 8.49939 4.23988 8.55213 4.14599 8.64602C4.0521 8.73991 3.99936 8.86725 3.99936 9.00002C3.99936 9.06577 4.01231 9.13087 4.03747 9.1916C4.06263 9.25234 4.0995 9.30753 4.14599 9.35402L5.14599 10.354C5.19244 10.4006 5.24761 10.4375 5.30836 10.4627C5.3691 10.4879 5.43422 10.5009 5.49999 10.5009C5.56576 10.5009 5.63088 10.4879 5.69162 10.4627C5.75237 10.4375 5.80755 10.4006 5.85399 10.354L7.85399 8.35402ZM10.75 8.50002C10.5511 8.50002 10.3603 8.57904 10.2197 8.71969C10.079 8.86034 9.99999 9.05111 9.99999 9.25002C9.99999 9.44893 10.079 9.6397 10.2197 9.78035C10.3603 9.921 10.5511 10 10.75 10H19.25C19.4489 10 19.6397 9.921 19.7803 9.78035C19.921 9.6397 20 9.44893 20 9.25002C20 9.05111 19.921 8.86034 19.7803 8.71969C19.6397 8.57904 19.4489 8.50002 19.25 8.50002H10.75ZM10.75 13.5C10.5511 13.5 10.3603 13.579 10.2197 13.7197C10.079 13.8603 9.99999 14.0511 9.99999 14.25C9.99999 14.4489 10.079 14.6397 10.2197 14.7804C10.3603 14.921 10.5511 15 10.75 15H19.25C19.4489 15 19.6397 14.921 19.7803 14.7804C19.921 14.6397 20 14.4489 20 14.25C20 14.0511 19.921 13.8603 19.7803 13.7197C19.6397 13.579 19.4489 13.5 19.25 13.5H10.75ZM9.99999 19.25C9.99999 19.0511 10.079 18.8603 10.2197 18.7197C10.3603 18.579 10.5511 18.5 10.75 18.5H19.25C19.4489 18.5 19.6397 18.579 19.7803 18.7197C19.921 18.8603 20 19.0511 20 19.25C20 19.4489 19.921 19.6397 19.7803 19.7804C19.6397 19.921 19.4489 20 19.25 20H10.75C10.5511 20 10.3603 19.921 10.2197 19.7804C10.079 19.6397 9.99999 19.4489 9.99999 19.25ZM7.85399 13.854C7.94788 13.7601 8.00062 13.6328 8.00062 13.5C8.00062 13.3672 7.94788 13.2399 7.85399 13.146C7.7601 13.0521 7.63277 12.9994 7.49999 12.9994C7.36721 12.9994 7.23988 13.0521 7.14599 13.146L5.49999 14.793L4.85399 14.146C4.7601 14.0521 4.63277 13.9994 4.49999 13.9994C4.36721 13.9994 4.23988 14.0521 4.14599 14.146C4.0521 14.2399 3.99936 14.3672 3.99936 14.5C3.99936 14.6328 4.0521 14.7601 4.14599 14.854L5.14599 15.854C5.19244 15.9006 5.24761 15.9375 5.30836 15.9627C5.3691 15.9879 5.43422 16.0009 5.49999 16.0009C5.56576 16.0009 5.63088 15.9879 5.69162 15.9627C5.75237 15.9375 5.80755 15.9006 5.85399 15.854L7.85399 13.854ZM7.85399 18.146C7.90055 18.1925 7.9375 18.2476 7.9627 18.3084C7.98791 18.3691 8.00088 18.4343 8.00088 18.5C8.00088 18.5658 7.98791 18.6309 7.9627 18.6917C7.9375 18.7524 7.90055 18.8076 7.85399 18.854L5.85399 20.854C5.80755 20.9006 5.75237 20.9375 5.69162 20.9627C5.63088 20.9879 5.56576 21.0009 5.49999 21.0009C5.43422 21.0009 5.3691 20.9879 5.30836 20.9627C5.24761 20.9375 5.19244 20.9006 5.14599 20.854L4.14599 19.854C4.0521 19.7601 3.99936 19.6328 3.99936 19.5C3.99936 19.3672 4.0521 19.2399 4.14599 19.146C4.23988 19.0521 4.36721 18.9994 4.49999 18.9994C4.63277 18.9994 4.7601 19.0521 4.85399 19.146L5.49999 19.793L7.14599 18.146C7.19244 18.0995 7.24761 18.0625 7.30836 18.0373C7.3691 18.0121 7.43422 17.9991 7.49999 17.9991C7.56576 17.9991 7.63088 18.0121 7.69162 18.0373C7.75237 18.0625 7.80755 18.0995 7.85399 18.146Z" fill="#777171"/>
<circle cx="22" cy="2" r="2" fill="#3F37C9" fill-opacity="0.5"/>
<circle cx="2" cy="26" r="2" fill="#777171" fill-opacity="0.5"/>
</svg>
