<svg width="21" height="21" viewBox="0 0 21 21" fill="none" xmlns="http://www.w3.org/2000/svg">
<path d="M10.5 11.5C11.0523 11.5 11.5 11.0523 11.5 10.5C11.5 9.94772 11.0523 9.5 10.5 9.5C9.94772 9.5 9.5 9.94772 9.5 10.5C9.5 11.0523 9.94772 11.5 10.5 11.5Z" fill="black"/>
<path d="M10.5 6.5C11.0523 6.5 11.5 6.05228 11.5 5.5C11.5 4.94772 11.0523 4.5 10.5 4.5C9.94772 4.5 9.5 4.94772 9.5 5.5C9.5 6.05228 9.94772 6.5 10.5 6.5Z" fill="black"/>
<path d="M10.5 16.5C11.0523 16.5 11.5 16.0523 11.5 15.5C11.5 14.9477 11.0523 14.5 10.5 14.5C9.94772 14.5 9.5 14.9477 9.5 15.5C9.5 16.0523 9.94772 16.5 10.5 16.5Z" fill="black"/>
</svg>
